<?xml version="1.0" encoding="utf-8"?>
<svg viewBox="0 0 500 500" xmlns="http://www.w3.org/2000/svg">
  <rect x="249.2" id="rect" y="152.89" id="dis" style="fill: rgb(255, 212, 66);" width="46.967" height="55.103"/>
  <g transform="matrix(0.766665, 0, 0, 0.749515, 100.501535, 34.482766)" style="">
    <path style="fill:#C0AB91;" d="M309.24,475.429H196.134c-25.222,0-45.668-20.447-45.668-45.668l0,0H309.24V475.429z"/>
    <path style="fill:#C0AB91;" d="M309.24,36.571v121.41H139.934l0,0c0-67.053,54.358-121.41,121.41-121.41H309.24z"/>
  </g>
  <rect x="337.584" y="61.893" style="fill: rgb(149, 120, 86);" width="149.443" height="328.929"/>
  <rect x="106.511" y="168.334" style="fill: rgb(255, 228, 119);" width="85.9" height="24.211"/>
  <circle style="fill: rgb(192, 171, 145);" cx="371.684" cy="72.359" r="29.257" transform="matrix(0.766665, 0, 0, 0.749515, 127.351839, 63.263986)"/>
  <path id="cup" style="fill: rgb(255, 212, 66);" d="M 43.939 270.177 L 43.939 301.97 C 43.939 324.468 61.55 342.941 84.031 344.939 C 85.363 345.057 86.713 345.121 88.076 345.121 C 112.453 345.121 132.214 325.801 132.214 301.97 L 132.214 270.177 L 43.939 270.177 Z"/>
  <path d="M 337.586 56.02 L 331.577 56.02 L 300.867 56.02 C 246.228 56.02 201.778 99.476 201.778 152.893 L 201.778 158.767 L 243.193 158.767 L 243.193 174.568 L 198.423 174.568 L 198.423 162.464 L 100.502 162.464 L 100.502 198.421 L 198.422 198.421 L 198.422 186.315 L 243.193 186.315 L 243.193 213.865 L 266.676 213.865 L 266.676 235.543 L 278.692 235.543 L 278.692 213.865 L 302.176 213.865 L 302.176 169.971 L 290.16 169.971 L 290.16 202.118 L 255.209 202.118 L 255.209 158.767 L 331.575 158.767 L 331.575 384.95 L 250.871 384.95 C 236.938 384.95 225.269 375.294 222.494 362.469 L 320.001 362.469 L 320.001 350.722 L 209.852 350.723 L 209.852 356.597 C 209.852 378.71 228.253 396.698 250.872 396.698 L 493.034 396.698 L 493.034 56.02 L 337.586 56.02 Z M 186.406 186.673 L 112.519 186.673 L 112.519 174.211 L 186.405 174.211 L 186.405 186.673 L 186.406 186.673 Z M 213.999 147.017 C 217.094 102.808 254.873 67.767 300.866 67.767 L 331.576 67.767 L 331.576 147.018 L 213.999 147.017 Z M 481.018 384.949 L 343.594 384.949 L 343.594 67.767 L 481.018 67.767 L 481.018 384.949 Z" style=""/>
  <path d="M 412.306 145.301 C 427.987 145.301 440.745 132.828 440.745 117.499 C 440.745 102.168 427.987 89.695 412.306 89.695 C 396.625 89.695 383.867 102.168 383.867 117.499 C 383.867 132.828 396.625 145.301 412.306 145.301 Z M 412.306 101.443 C 421.361 101.443 428.728 108.646 428.728 117.499 C 428.728 126.351 421.361 133.553 412.306 133.553 C 403.25 133.553 395.884 126.351 395.884 117.499 C 395.884 108.646 403.25 101.443 412.306 101.443 Z" style=""/>
  <path id="cup" d="M 21.24 276.342 L 31.014 276.342 L 31.014 302.589 C 31.014 329.621 53.51 351.613 81.161 351.613 C 108.813 351.613 131.308 329.621 131.308 302.589 L 131.308 264.594 L 21.24 264.594 C 9.004 264.594 -0.952 274.327 -0.952 286.29 L -0.952 293.842 C -0.952 305.805 9.003 315.537 21.24 315.537 L 21.24 303.79 C 15.63 303.79 11.065 299.327 11.065 293.842 L 11.065 286.291 C 11.064 280.805 15.628 276.342 21.24 276.342 Z M 43.029 276.342 L 119.288 276.342 L 119.288 302.589 C 119.288 323.143 102.183 339.865 81.159 339.865 C 60.134 339.865 43.029 323.143 43.029 302.589 L 43.029 276.342 Z" style=""/>
</svg>